<svg width="260" height="260" viewBox="0 0 260 260" fill="none" xmlns="http://www.w3.org/2000/svg">
<g clip-path="url(#clip0_33_16)">
<g filter="url(#filter0_d_33_16)">
<path d="M112.567 164.048C107.514 163.912 102.599 162.478 97.8197 159.747C93.1771 157.016 89.4903 152.237 86.7594 145.41L79.181 126.976H66.2774C65.5946 126.976 65.2533 126.566 65.2533 125.747C65.2533 124.928 65.5946 124.518 66.2774 124.518H80.2051C80.6148 124.518 80.9561 124.791 81.2292 125.337L89.0124 144.59C91.4702 150.735 94.8156 155.104 99.0486 157.699C103.418 160.157 107.924 161.454 112.567 161.59C117.346 161.454 121.988 160.635 126.494 159.133C131.137 157.494 134.96 154.968 137.964 151.554C141.105 148.141 142.744 143.771 142.88 138.446C143.017 134.349 142.539 130.731 141.446 127.59C140.49 124.313 139.535 121.514 138.579 119.193L101.916 24.7706C99.4582 18.3529 95.7714 13.4372 90.8558 10.0235C86.0766 6.60988 80.3417 4.83478 73.6509 4.69823C66.2774 4.69823 60.201 6.47334 55.4219 10.0235C50.6428 13.4372 46.956 18.3529 44.3616 24.7706L4.2169 127.385C2.57834 131.618 2.10043 135.851 2.78316 140.084C3.46589 144.317 5.10445 148.141 7.69884 151.554C10.2932 154.831 13.6386 157.221 17.735 158.723L24.2893 161.181C25.1085 161.454 25.3816 162 25.1085 162.819C24.8354 163.502 24.221 163.707 23.2652 163.434L16.7109 160.976C12.2049 159.201 8.51812 156.47 5.65064 152.783C2.91971 149.096 1.1446 144.932 0.32532 140.289C-0.357413 135.646 0.188774 131.072 1.96388 126.566L42.1086 23.9513C44.8395 16.9874 48.7994 11.6621 53.9882 7.97535C59.3135 4.15204 65.8677 2.24039 73.6509 2.24039C80.7513 2.37693 86.9642 4.28859 92.2895 7.97535C97.6148 11.6621 101.575 16.9874 104.169 23.9513L140.832 118.373C141.788 120.695 142.812 123.562 143.904 126.976C144.997 130.389 145.474 134.213 145.338 138.446C145.201 144.317 143.426 149.165 140.013 152.988C136.735 156.811 132.571 159.61 127.519 161.386C122.603 163.161 117.619 164.048 112.567 164.048Z" fill="black"/>
</g>
<g filter="url(#filter1_d_33_16)">
<path d="M167.634 259.875C155.481 259.875 144.421 256.871 134.453 250.863C124.485 244.855 116.566 236.32 110.694 225.26C104.959 214.063 102.092 200.682 102.092 185.115V176.923C102.092 164.497 104.072 153.3 108.031 143.332C111.991 133.364 117.453 124.898 124.417 117.934C131.517 110.834 139.71 105.44 148.995 101.754C158.417 98.0669 168.453 96.2235 179.104 96.2235C190.301 96.2235 200.815 97.9303 210.646 101.344C220.614 104.621 229.148 109.742 236.249 116.705C243.349 123.669 248.197 132.613 250.791 143.537C251.064 144.493 250.723 144.971 249.767 144.971C248.948 144.971 248.47 144.629 248.333 143.947C245.739 133.432 241.028 124.898 234.2 118.344C227.51 111.653 219.385 106.738 209.827 103.597C200.405 100.32 190.164 98.6813 179.104 98.6813C168.726 98.6813 159.032 100.525 150.019 104.211C141.007 107.762 133.088 112.95 126.26 119.778C119.433 126.605 114.108 134.866 110.284 144.561C106.461 154.119 104.549 164.906 104.549 176.923V185.115C104.549 200.272 107.349 213.244 112.947 224.031C118.545 234.818 126.124 243.079 135.682 248.814C145.24 254.549 155.891 257.417 167.634 257.417C175.963 257.417 183.269 255.778 189.55 252.501C195.967 249.087 199.722 244.24 200.815 237.959C200.815 237.14 201.224 236.73 202.044 236.73C202.863 236.73 203.273 237.14 203.273 237.959C203.273 243.284 204.775 247.517 207.779 250.658C210.919 253.662 214.811 255.164 219.453 255.164H237.068C241.711 255.164 245.602 253.525 248.743 250.248C251.883 246.834 253.454 242.67 253.454 237.754V196.176C253.454 191.397 251.883 187.3 248.743 183.886C245.602 180.473 241.711 178.766 237.068 178.766H195.285C190.642 178.766 186.751 180.473 183.61 183.886C180.606 187.3 179.104 191.397 179.104 196.176C179.104 196.995 178.694 197.405 177.875 197.405C176.919 197.405 176.441 196.995 176.441 196.176C176.441 190.85 178.285 186.208 181.971 182.248C185.795 178.288 190.232 176.308 195.285 176.308H237.068C242.393 176.308 246.831 178.288 250.381 182.248C254.068 186.071 255.911 190.714 255.911 196.176V237.754C255.911 243.353 254.068 248.063 250.381 251.887C246.831 255.71 242.393 257.622 237.068 257.622H219.453C215.221 257.622 211.397 256.461 207.984 254.14C204.706 251.682 202.522 248.268 201.429 243.899C198.971 248.951 194.534 252.911 188.116 255.778C181.835 258.509 175.008 259.875 167.634 259.875Z" fill="black"/>
</g>
</g>
<defs>
<filter id="filter0_d_33_16" x="-1.43028" y="1.50889" width="153.556" height="169.123" filterUnits="userSpaceOnUse" color-interpolation-filters="sRGB">
<feFlood flood-opacity="0" result="BackgroundImageFix"/>
<feColorMatrix in="SourceAlpha" type="matrix" values="0 0 0 0 0 0 0 0 0 0 0 0 0 0 0 0 0 0 127 0" result="hardAlpha"/>
<feOffset dx="2.926" dy="2.926"/>
<feGaussianBlur stdDeviation="1.82875"/>
<feComposite in2="hardAlpha" operator="out"/>
<feColorMatrix type="matrix" values="0 0 0 0 0 0 0 0 0 0 0 0 0 0 0 0 0 0 0.25 0"/>
<feBlend mode="normal" in2="BackgroundImageFix" result="effect1_dropShadow_33_16"/>
<feBlend mode="normal" in="SourceGraphic" in2="effect1_dropShadow_33_16" result="shape"/>
</filter>
<filter id="filter1_d_33_16" x="101.36" y="95.492" width="161.135" height="170.966" filterUnits="userSpaceOnUse" color-interpolation-filters="sRGB">
<feFlood flood-opacity="0" result="BackgroundImageFix"/>
<feColorMatrix in="SourceAlpha" type="matrix" values="0 0 0 0 0 0 0 0 0 0 0 0 0 0 0 0 0 0 127 0" result="hardAlpha"/>
<feOffset dx="2.926" dy="2.926"/>
<feGaussianBlur stdDeviation="1.82875"/>
<feComposite in2="hardAlpha" operator="out"/>
<feColorMatrix type="matrix" values="0 0 0 0 0 0 0 0 0 0 0 0 0 0 0 0 0 0 0.25 0"/>
<feBlend mode="normal" in2="BackgroundImageFix" result="effect1_dropShadow_33_16"/>
<feBlend mode="normal" in="SourceGraphic" in2="effect1_dropShadow_33_16" result="shape"/>
</filter>
<clipPath id="clip0_33_16">
<rect width="260" height="260" fill="white"/>
</clipPath>
</defs>
</svg>
